#Comment line ignore any data following # character 
#Hierarchical Translation and Rotation (.htr) file 
[Header]	
#Header keywords are followed by a single value 
FileType HTR		#Single word string
DataType HTRS		#Translation followed by rotation and scale data
FileVersion 1		#integer
NumSegments 64		#integer
NumFrames 3		#integer
DataFrameRate 30		#integer, data frame rate in this file
EulerRotationOrder ZYX
CalibrationUnits mm
RotationUnits Degrees
GlobalAxisofGravity Y
BoneLengthAxis Y
ScaleFactor 1.00
[SegmentNames&Hierarchy]
#CHILD	PARENT
Pinger_Root GLOBAL
Pelvis Pinger_Root
L_Hip Pelvis
R_Hip Pelvis
Rear_Leg01 Pelvis
Spine1 Pelvis
L_Leg01 L_Hip
L_Leg02 L_Leg01
L_Leg03 L_Leg02
L_Foot L_Leg03
L_Toe1_01 L_Foot
L_Toe2_01 L_Foot
L_Toe3_01 L_Foot
planeAlignerLeft L_Foot
L_Toe1_02 L_Toe1_01
L_Toe1_03 L_Toe1_02
L_Toe2_02 L_Toe2_01
L_Toe2_03 L_Toe2_02
L_Toe3_02 L_Toe3_01
L_Toe3_03 L_Toe3_02
planeLockWeightLeft planeAlignerLeft
R_Leg01 R_Hip
R_Leg02 R_Leg01
R_Leg03 R_Leg02
R_Foot R_Leg03
planeAlignerRight R_Foot
R_Toe1_01 R_Foot
R_Toe2_01 R_Foot
R_Toe3_01 R_Foot
planeLockWeightRight planeAlignerRight
R_Toe1_02 R_Toe1_01
R_Toe1_03 R_Toe1_02
R_Toe2_02 R_Toe2_01
R_Toe2_03 R_Toe2_02
R_Toe3_02 R_Toe3_01
R_Toe3_03 R_Toe3_02
Rear_Leg02 Rear_Leg01
Rear_Leg03 Rear_Leg02
Rear_Leg04 Rear_Leg03
Rear_Foot Rear_Leg04
planeAlignerCenter Rear_Foot
Rear_Toe1_01 Rear_Foot
Rear_Toe2_01 Rear_Foot
Rear_Toe3_01 Rear_Foot
planeLockWeightCenter planeAlignerCenter
Rear_Toe1_02 Rear_Toe1_01
Rear_Toe1_03 Rear_Toe1_02
Rear_Toe2_02 Rear_Toe2_01
Rear_Toe2_03 Rear_Toe2_02
Rear_Toe3_02 Rear_Toe3_01
Rear_Toe3_03 Rear_Toe3_02
Back_Bone Spine1
Head Spine1
Motor_Bone Back_Bone
Ping_Mechanism Back_Bone
BN_LookIK Head
bottomMouth Head
L_Mouth01 Head
L_mouthFront Head
mouthGun Head
R_Mouth01 Head
R_mouthFront Head
TopMouth Head
weapon_bone Head
[BasePosition]
#SegmentName Tx, Ty, Tz, Rx, Ry, Rz, BoneLength
Pinger_Root 0.000000 0.000000 0.000000 -90.000000 0.000000 0.000000 10.000000 
Pelvis 0.000000 0.000000 0.000000 0.000000 0.000000 0.000000 10.000000 
L_Hip 0.000000 0.000000 0.000000 0.000000 0.000000 0.000000 10.000000 
R_Hip 0.000000 0.000000 0.000000 0.000000 0.000000 0.000000 10.000000 
Rear_Leg01 0.000000 0.000000 0.000000 0.000000 0.000000 0.000000 10.000000 
Spine1 0.000000 0.000000 0.000000 0.000000 0.000000 0.000000 10.000000 
L_Leg01 0.000000 0.000000 0.000000 0.000000 0.000000 0.000000 10.000000 
L_Leg02 0.000000 0.000000 0.000000 0.000000 0.000000 0.000000 10.000000 
L_Leg03 0.000000 0.000000 0.000000 0.000000 0.000000 0.000000 10.000000 
L_Foot 0.000000 0.000000 0.000000 0.000000 0.000000 0.000000 10.000000 
L_Toe1_01 0.000000 0.000000 0.000000 0.000000 0.000000 0.000000 10.000000 
L_Toe2_01 0.000000 0.000000 0.000000 0.000000 0.000000 0.000000 10.000000 
L_Toe3_01 0.000000 0.000000 0.000000 0.000000 0.000000 0.000000 10.000000 
planeAlignerLeft 0.000000 0.000000 0.000000 0.000000 0.000000 0.000000 10.000000 
L_Toe1_02 0.000000 0.000000 0.000000 0.000000 0.000000 0.000000 10.000000 
L_Toe1_03 0.000000 0.000000 0.000000 0.000000 0.000000 0.000000 10.000000 
L_Toe2_02 0.000000 0.000000 0.000000 0.000000 0.000000 0.000000 10.000000 
L_Toe2_03 0.000000 0.000000 0.000000 0.000000 0.000000 0.000000 10.000000 
L_Toe3_02 0.000000 0.000000 0.000000 0.000000 0.000000 0.000000 10.000000 
L_Toe3_03 0.000000 0.000000 0.000000 0.000000 0.000000 0.000000 10.000000 
planeLockWeightLeft 0.000000 0.000000 0.000000 0.000000 0.000000 0.000000 10.000000 
R_Leg01 0.000000 0.000000 0.000000 0.000000 0.000000 0.000000 10.000000 
R_Leg02 0.000000 0.000000 0.000000 0.000000 0.000000 0.000000 10.000000 
R_Leg03 0.000000 0.000000 0.000000 0.000000 0.000000 0.000000 10.000000 
R_Foot 0.000000 0.000000 0.000000 0.000000 0.000000 0.000000 10.000000 
planeAlignerRight 0.000000 0.000000 0.000000 0.000000 0.000000 0.000000 10.000000 
R_Toe1_01 0.000000 0.000000 0.000000 0.000000 0.000000 0.000000 10.000000 
R_Toe2_01 0.000000 0.000000 0.000000 0.000000 0.000000 0.000000 10.000000 
R_Toe3_01 0.000000 0.000000 0.000000 0.000000 0.000000 0.000000 10.000000 
planeLockWeightRight 0.000000 0.000000 0.000000 0.000000 0.000000 0.000000 10.000000 
R_Toe1_02 0.000000 0.000000 0.000000 0.000000 0.000000 0.000000 10.000000 
R_Toe1_03 0.000000 0.000000 0.000000 0.000000 0.000000 0.000000 10.000000 
R_Toe2_02 0.000000 0.000000 0.000000 0.000000 0.000000 0.000000 10.000000 
R_Toe2_03 0.000000 0.000000 0.000000 0.000000 0.000000 0.000000 10.000000 
R_Toe3_02 0.000000 0.000000 0.000000 0.000000 0.000000 0.000000 10.000000 
R_Toe3_03 0.000000 0.000000 0.000000 0.000000 0.000000 0.000000 10.000000 
Rear_Leg02 0.000000 0.000000 0.000000 0.000000 0.000000 0.000000 10.000000 
Rear_Leg03 0.000000 0.000000 0.000000 0.000000 0.000000 0.000000 10.000000 
Rear_Leg04 0.000000 0.000000 0.000000 0.000000 0.000000 0.000000 10.000000 
Rear_Foot 0.000000 0.000000 0.000000 0.000000 0.000000 0.000000 10.000000 
planeAlignerCenter 0.000000 0.000000 0.000000 0.000000 0.000000 0.000000 10.000000 
Rear_Toe1_01 0.000000 0.000000 0.000000 0.000000 0.000000 0.000000 10.000000 
Rear_Toe2_01 0.000000 0.000000 0.000000 0.000000 0.000000 0.000000 10.000000 
Rear_Toe3_01 0.000000 0.000000 0.000000 0.000000 0.000000 0.000000 10.000000 
planeLockWeightCenter 0.000000 0.000000 0.000000 0.000000 0.000000 0.000000 10.000000 
Rear_Toe1_02 0.000000 0.000000 0.000000 0.000000 0.000000 0.000000 10.000000 
Rear_Toe1_03 0.000000 0.000000 0.000000 0.000000 0.000000 0.000000 10.000000 
Rear_Toe2_02 0.000000 0.000000 0.000000 0.000000 0.000000 0.000000 10.000000 
Rear_Toe2_03 0.000000 0.000000 0.000000 0.000000 0.000000 0.000000 10.000000 
Rear_Toe3_02 0.000000 0.000000 0.000000 0.000000 0.000000 0.000000 10.000000 
Rear_Toe3_03 0.000000 0.000000 0.000000 0.000000 0.000000 0.000000 10.000000 
Back_Bone 0.000000 0.000000 0.000000 0.000000 0.000000 0.000000 10.000000 
Head 0.000000 0.000000 0.000000 0.000000 0.000000 0.000000 10.000000 
Motor_Bone 0.000000 0.000000 0.000000 0.000000 0.000000 0.000000 10.000000 
Ping_Mechanism 0.000000 0.000000 0.000000 0.000000 0.000000 0.000000 10.000000 
BN_LookIK 0.000000 0.000000 0.000000 0.000000 0.000000 0.000000 10.000000 
bottomMouth 0.000000 0.000000 0.000000 0.000000 0.000000 0.000000 10.000000 
L_Mouth01 0.000000 0.000000 0.000000 0.000000 0.000000 0.000000 10.000000 
L_mouthFront 0.000000 0.000000 0.000000 0.000000 0.000000 0.000000 10.000000 
mouthGun 0.000000 0.000000 0.000000 0.000000 0.000000 0.000000 10.000000 
R_Mouth01 0.000000 0.000000 0.000000 0.000000 0.000000 0.000000 10.000000 
R_mouthFront 0.000000 0.000000 0.000000 0.000000 0.000000 0.000000 10.000000 
TopMouth 0.000000 0.000000 0.000000 0.000000 0.000000 0.000000 10.000000 
weapon_bone 0.000000 0.000000 0.000000 0.000000 0.000000 0.000000 10.000000 
#Beginning of Data. Separated by tabs
#Fr	Tx	Ty	Tz	Rx	Ry	Rz	SF
[Pinger_Root]
63 0.000000 0.000000 0.000000 -0.000075 -0.000000 -0.000020 0.000000
64 0.000000 0.000000 0.000000 -0.000075 -0.000000 -0.000020 0.000000
65 0.000000 0.000000 0.000000 -0.000075 -0.000000 -0.000020 0.000000
[Pelvis]
63 2.478939 1002.308594 3635.218262 90.029785 -84.538834 -90.028633 3770.867432
64 2.642439 1002.308594 3637.325439 90.029785 -84.538902 -90.028633 3772.898926
65 2.805938 1002.308594 3639.432373 90.029785 -84.538902 -90.028633 3774.930176
[L_Hip]
63 5.766392 125.831482 872.656799 -121.855164 -74.309326 30.031721 881.701050
64 5.766392 125.831482 872.656799 -121.855164 -74.309326 30.031721 881.701050
65 5.766392 125.831482 872.656799 -121.855164 -74.309326 30.031721 881.701050
[R_Hip]
63 5.765438 125.836372 -872.654907 -62.006908 72.295975 26.002958 881.699829
64 5.765438 125.836372 -872.654907 -62.006908 72.295975 26.002958 881.699829
65 5.765438 125.836372 -872.654907 -62.006908 72.295975 26.002958 881.699829
[Rear_Leg01]
63 -192.298416 -925.602966 -0.001907 175.996277 -1.846212 -109.513596 945.367432
64 -192.298416 -925.602966 -0.001907 175.998001 -1.848009 -109.537804 945.367432
65 -192.298416 -925.602966 -0.001907 175.999741 -1.849805 -109.562019 945.367432
[Spine1]
63 290.604584 5.007505 0.000477 0.002020 0.001196 28.734606 290.647736
64 290.604584 5.007505 0.000477 0.002020 0.001196 28.734600 290.647736
65 290.604584 5.007505 0.000477 0.002020 0.001196 28.734606 290.647736
[L_Leg01]
63 761.932007 -0.002384 -0.069261 80.007080 -25.237951 -80.457062 761.932068
64 761.932007 -0.002384 -0.069261 80.022713 -25.147255 -80.496391 761.932068
65 761.932007 -0.002384 -0.069261 80.038292 -25.056555 -80.535698 761.932068
[L_Leg02]
63 1441.140503 -0.000954 -0.000715 3.290615 0.241270 -105.840950 1441.140503
64 1441.140503 -0.000954 -0.000715 3.272209 0.235617 -105.652168 1441.140503
65 1441.140503 -0.000954 -0.000715 3.253785 0.230024 -105.463394 1441.140503
[L_Leg03]
63 1686.963989 -0.000715 -0.000954 -0.068011 0.036767 128.575409 1686.963989
64 1686.963989 -0.000715 -0.000954 -0.067293 0.037079 128.498566 1686.963989
65 1686.963989 -0.000715 -0.000954 -0.066576 0.037393 128.421707 1686.963989
[L_Foot]
63 3041.570068 -30.715107 11.297464 1.883178 24.672859 37.517521 3041.746094
64 3041.570068 -30.715107 11.297464 1.881561 24.677172 37.490093 3041.746094
65 3041.570068 -30.715107 11.297464 1.879940 24.681480 37.462654 3041.746094
[L_Toe1_01]
63 -188.216690 -224.732346 -21.137953 94.536530 -11.874324 -178.539001 293.899567
64 -188.216690 -224.732346 -21.137953 94.536530 -11.874324 -178.539001 293.899567
65 -188.216690 -224.732346 -21.137953 94.536530 -11.874324 -178.539001 293.899567
[L_Toe2_01]
63 200.746536 -219.926590 148.838394 -89.367714 -33.864681 -48.488380 332.896027
64 200.746536 -219.926590 148.838394 -89.368340 -33.864796 -48.487717 332.896027
65 200.746536 -219.926590 148.838394 -89.368988 -33.864918 -48.487068 332.896027
[L_Toe3_01]
63 188.832520 -219.859131 -191.078659 -97.059456 10.778994 -57.834042 347.140900
64 188.832520 -219.859131 -191.078659 -97.059143 10.778888 -57.833302 347.140900
65 188.832520 -219.859131 -191.078659 -97.058846 10.778780 -57.832584 347.140900
[planeAlignerLeft]
63 0.812531 -811.448792 -0.314951 0.000000 -90.000000 -90.001900 811.449280
64 0.812531 -811.448792 -0.314951 0.000000 -90.000000 -90.001900 811.449280
65 0.812531 -811.448792 -0.314951 0.000000 -90.000000 -90.001900 811.449280
[L_Toe1_02]
63 413.761139 0.000477 0.000000 0.000203 -25.410625 -0.000182 413.761139
64 413.761139 0.000477 0.000000 0.000203 -25.410625 -0.000182 413.761139
65 413.761139 0.000477 0.000000 0.000203 -25.410625 -0.000182 413.761139
[L_Toe1_03]
63 464.317322 0.000358 -0.000089 0.004342 58.635971 0.004342 464.317322
64 464.317322 0.000358 -0.000089 0.004342 58.635971 0.004342 464.317322
65 464.317322 0.000358 -0.000089 0.004342 58.635971 0.004342 464.317322
[L_Toe2_02]
63 342.235809 -0.000477 0.000238 0.001191 -70.156403 0.001191 342.235809
64 342.235809 -0.000477 0.000238 0.001191 -70.156425 0.001191 342.235809
65 342.235809 -0.000477 0.000238 0.001191 -70.156403 0.001191 342.235809
[L_Toe2_03]
63 420.210846 -0.000715 0.000000 0.013353 79.915703 0.013353 420.210846
64 420.210846 -0.000715 0.000000 0.013353 79.915703 0.013353 420.210846
65 420.210846 -0.000715 0.000000 0.013353 79.915703 0.013353 420.210846
[L_Toe3_02]
63 329.270111 0.000954 0.000000 0.001176 -83.130447 0.001176 329.270111
64 329.270111 0.000954 0.000000 0.001176 -83.130447 0.001176 329.270111
65 329.270111 0.000954 0.000000 0.001176 -83.130447 0.001176 329.270111
[L_Toe3_03]
63 439.137451 -0.001907 0.000954 179.990875 65.540901 179.998047 439.137451
64 439.137451 -0.001907 0.000954 179.990875 65.540901 179.998047 439.137451
65 439.137451 -0.001907 0.000954 179.990875 65.540901 179.998047 439.137451
[planeLockWeightLeft]
63 -0.000954 0.000238 -0.000305 -0.011826 -0.004376 0.005620 0.001029
64 -0.000954 0.000238 -0.000305 -0.011826 -0.004376 0.005620 0.001029
65 -0.000954 0.000238 -0.000305 -0.011826 -0.004376 0.005620 0.001029
[R_Leg01]
63 761.455627 -0.001907 -0.000358 90.915779 -15.122739 82.456261 761.455688
64 761.455627 -0.001907 -0.000358 90.918442 -15.047158 82.476738 761.455688
65 761.455627 -0.001907 -0.000358 90.921120 -14.971579 82.497208 761.455688
[R_Leg02]
63 1441.140625 0.000000 -0.000238 -1.047181 -0.395455 -128.987411 1441.140625
64 1441.140625 0.000000 -0.000238 -1.044528 -0.392581 -128.800079 1441.140625
65 1441.140625 0.000000 -0.000238 -1.041866 -0.389717 -128.612747 1441.140625
[R_Leg03]
63 1686.963989 0.000954 0.001431 0.110293 -0.066914 140.036636 1686.963989
64 1686.963989 0.000954 0.001431 0.110318 -0.066872 139.993790 1686.963989
65 1686.963989 0.000954 0.001431 0.110343 -0.066831 139.950912 1686.963989
[R_Foot]
63 3041.560059 -30.531288 -11.204481 -15.419861 -24.987759 48.848129 3041.734131
64 3041.560059 -30.531288 -11.204481 -15.436557 -24.990166 48.807472 3041.734131
65 3041.560059 -30.531288 -11.204481 -15.453241 -24.992571 48.766800 3041.734131
[planeAlignerRight]
63 -0.635147 -812.270569 -0.364304 0.000000 -89.960434 -90.005180 812.270874
64 -0.635147 -812.270569 -0.364304 0.000000 -89.960434 -90.005180 812.270874
65 -0.635147 -812.270569 -0.364304 0.000000 -89.960434 -90.005180 812.270874
[R_Toe1_01]
63 -188.383347 -224.864899 21.052242 58.205193 26.475275 -166.995621 294.101532
64 -188.383347 -224.864899 21.052242 58.205219 26.475321 -166.995590 294.101532
65 -188.383347 -224.864899 21.052242 58.205242 26.475367 -166.995560 294.101532
[R_Toe2_01]
63 200.637817 -220.002121 -148.787384 -55.994591 39.712746 -29.524965 332.857574
64 200.637817 -220.002121 -148.787384 -55.994591 39.712746 -29.524965 332.857574
65 200.637817 -220.002121 -148.787384 -55.994591 39.712746 -29.524965 332.857574
[R_Toe3_01]
63 188.606735 -220.092957 191.126343 -53.843643 11.159886 -73.286758 347.192566
64 188.606735 -220.092957 191.126343 -53.843647 11.159914 -73.286705 347.192566
65 188.606735 -220.092957 191.126343 -53.843643 11.159942 -73.286644 347.192566
[planeLockWeightRight]
63 -0.000477 0.000000 0.000000 -0.011823 -0.004379 -0.000027 0.000477
64 -0.000477 0.000000 0.000000 -0.011823 -0.004379 -0.000027 0.000477
65 -0.000477 0.000000 0.000000 -0.011823 -0.004379 -0.000027 0.000477
[R_Toe1_02]
63 413.762085 0.000477 -0.000119 0.000006 -25.434675 -0.000005 413.762085
64 413.762085 0.000477 -0.000119 0.000006 -25.434675 -0.000005 413.762085
65 413.762085 0.000477 -0.000119 0.000006 -25.434675 -0.000005 413.762085
[R_Toe1_03]
63 464.317810 0.000000 0.001088 0.003184 46.739632 0.003184 464.317810
64 464.317810 0.000000 0.001088 0.003184 46.739590 0.003184 464.317810
65 464.317810 0.000000 0.001088 0.003184 46.739529 0.003184 464.317810
[R_Toe2_02]
63 342.234741 -0.000954 0.000238 0.001235 -53.660015 0.001235 342.234741
64 342.234741 -0.000954 0.000238 0.001235 -53.660015 0.001235 342.234741
65 342.234741 -0.000954 0.000238 0.001235 -53.660023 0.001235 342.234741
[R_Toe2_03]
63 420.210846 0.000715 -0.000268 -0.003602 51.671577 0.000100 420.210846
64 420.210846 0.000715 -0.000268 -0.003602 51.671577 0.000100 420.210846
65 420.210846 0.000715 -0.000268 -0.003602 51.671577 0.000100 420.210846
[R_Toe3_02]
63 329.270355 -0.000477 -0.000954 -0.002373 -66.445053 -0.002373 329.270355
64 329.270355 -0.000477 -0.000954 -0.002373 -66.445053 -0.002373 329.270355
65 329.270355 -0.000477 -0.000954 -0.002373 -66.445053 -0.002373 329.270355
[R_Toe3_03]
63 439.137939 0.000238 0.001431 0.005869 66.928574 0.005869 439.137939
64 439.137939 0.000238 0.001431 0.005869 66.928535 0.005869 439.137939
65 439.137939 0.000238 0.001431 0.005869 66.928558 0.005869 439.137939
[Rear_Leg02]
63 1162.777710 -0.029802 0.005960 -4.616952 6.815568 -103.406960 1162.777710
64 1162.777710 -0.029802 0.005960 -4.608052 6.821487 -103.330673 1162.777710
65 1162.777710 -0.029802 0.005960 -4.599143 6.827395 -103.254387 1162.777710
[Rear_Leg03]
63 607.192505 -0.013351 -0.073195 0.010308 -0.005469 72.252243 607.192505
64 607.192505 -0.013351 -0.073195 0.010308 -0.005467 72.237694 607.192505
65 607.192505 -0.013351 -0.073195 0.010309 -0.005466 72.223152 607.192505
[Rear_Leg04]
63 995.874512 -0.020504 -0.011921 -0.041518 -0.015662 76.025490 995.874573
64 995.874512 -0.020504 -0.011921 -0.041508 -0.015688 75.952026 995.874573
65 995.874512 -0.020504 -0.011921 -0.041498 -0.015715 75.878548 995.874573
[Rear_Foot]
63 3096.176270 -0.067472 -0.041425 94.550812 83.041534 -77.729950 3096.176270
64 3096.176270 -0.067472 -0.041425 94.570633 83.039444 -77.740311 3096.176270
65 3096.176270 -0.067472 -0.041425 94.590561 83.037399 -77.750610 3096.176270
[planeAlignerCenter]
63 0.350077 0.966311 -838.790894 0.000009 0.000003 -179.999985 838.791565
64 0.350077 0.966311 -838.790894 0.000009 0.000003 -179.999985 838.791565
65 0.350077 0.966311 -838.790894 0.000009 0.000003 -179.999985 838.791565
[Rear_Toe1_01]
63 0.653352 83.966492 -371.173737 5.370911 30.467636 103.572113 380.553192
64 0.653352 83.966492 -371.173737 5.370763 30.467733 103.571541 380.553192
65 0.653352 83.966492 -371.173737 5.370618 30.467831 103.570969 380.553192
[Rear_Toe2_01]
63 178.200760 -294.826019 -362.060547 -8.739339 22.954016 -73.367104 499.765686
64 178.200760 -294.826019 -362.060547 -8.739310 22.954065 -73.366623 499.765686
65 178.200760 -294.826019 -362.060547 -8.739283 22.954109 -73.366119 499.765686
[Rear_Toe3_01]
63 -153.359680 -308.780914 -362.060852 3.775946 19.495193 -119.568108 499.952881
64 -153.359680 -308.780914 -362.060852 3.776000 19.495169 -119.568047 499.952881
65 -153.359680 -308.780914 -362.060852 3.776054 19.495140 -119.567970 499.952881
[planeLockWeightCenter]
63 -0.000062 0.000238 0.000000 -0.011814 -0.004373 -0.000015 0.000246
64 -0.000062 0.000238 0.000000 -0.011814 -0.004373 -0.000015 0.000246
65 -0.000062 0.000238 0.000000 -0.011814 -0.004373 -0.000015 0.000246
[Rear_Toe1_02]
63 379.707825 0.194073 0.000477 -0.000341 -33.019932 0.006990 379.707855
64 379.707825 0.194073 0.000477 -0.000341 -33.020828 0.006990 379.707855
65 379.707825 0.194073 0.000477 -0.000341 -33.021740 0.006990 379.707855
[Rear_Toe1_03]
63 500.129700 0.165701 0.000119 -0.004071 60.578739 -0.000456 500.129761
64 500.129700 0.165701 0.000119 -0.004071 60.578915 -0.000456 500.129761
65 500.129700 0.165701 0.000119 -0.004071 60.579079 -0.000456 500.129761
[Rear_Toe2_02]
63 340.494507 0.000238 -0.000954 0.001179 -79.094398 0.001179 340.494507
64 340.494507 0.000238 -0.000954 0.001179 -79.094398 0.001179 340.494507
65 340.494507 0.000238 -0.000954 0.001179 -79.094398 0.001179 340.494507
[Rear_Toe2_03]
63 433.103577 0.000000 0.000238 0.031673 85.752869 0.031673 433.103546
64 433.103577 0.000000 0.000238 0.031673 85.752869 0.031673 433.103546
65 433.103577 0.000000 0.000238 0.031673 85.752869 0.031673 433.103546
[Rear_Toe3_02]
63 340.494141 -0.000358 -0.000477 -0.002471 -50.096031 -0.002471 340.494171
64 340.494141 -0.000358 -0.000477 -0.002471 -50.096054 -0.002471 340.494171
65 340.494141 -0.000358 -0.000477 -0.002471 -50.096046 -0.002471 340.494171
[Rear_Toe3_03]
63 433.103577 0.001431 -0.000238 0.000412 44.444786 -0.003381 433.103546
64 433.103577 0.001431 -0.000238 0.000412 44.444843 -0.003381 433.103546
65 433.103577 0.001431 -0.000238 0.000412 44.444897 -0.003381 433.103546
[Back_Bone]
63 1312.175781 -701.934692 0.000954 0.034703 0.001030 -85.645660 1488.125488
64 1312.175781 -701.934692 0.000954 0.034536 0.001036 -85.646545 1488.125488
65 1312.175781 -701.934692 0.000954 0.034370 0.001043 -85.647415 1488.125488
[Head]
63 1406.159424 809.709290 0.001431 0.001165 0.191006 14.571376 1622.625488
64 1406.159424 809.709290 0.001431 0.001851 0.001448 14.092810 1622.625488
65 1406.159424 809.709290 0.001431 0.001855 0.001439 14.401806 1622.625488
[Motor_Bone]
63 1158.364380 -417.834747 0.000477 -0.000105 0.000046 -105.985291 1231.419434
64 1158.364380 -417.834747 0.000477 -0.000105 0.000046 -105.985291 1231.419434
65 1158.364380 -417.834747 0.000477 -0.000105 0.000046 -105.985291 1231.419434
[Ping_Mechanism]
63 1191.106079 -419.694000 0.000531 0.000103 -0.000053 82.120995 1262.884277
64 1191.106079 -419.694031 0.000531 0.000103 -0.000053 82.120995 1262.884277
65 1191.106201 -419.694092 0.000531 0.000103 -0.000053 82.120995 1262.884399
[BN_LookIK]
63 193.241119 1380.371704 -0.002861 0.000000 89.965736 -31.038179 1393.832153
64 193.241119 1380.371704 -0.002861 0.000000 89.965736 -31.038179 1393.832153
65 193.241119 1380.371704 -0.002861 0.000000 89.965736 -31.038179 1393.832153
[bottomMouth]
63 -435.092926 615.759399 -0.000954 -0.000022 0.000016 73.527184 753.966492
64 -435.092926 615.759399 -0.000954 -0.000022 0.000016 73.527184 753.966492
65 -435.092926 615.759399 -0.000954 -0.000022 0.000016 73.527184 753.966492
[L_Mouth01]
63 554.440979 7.658243 838.222046 150.204178 23.759130 109.605339 1005.027161
64 554.440979 7.658243 838.222046 150.204178 23.759130 109.605339 1005.027161
65 554.440979 7.658243 838.222046 150.204178 23.759130 109.605339 1005.027161
[L_mouthFront]
63 551.629089 934.514771 339.150421 0.000081 2.804060 79.119301 1136.941284
64 551.629089 934.514771 339.150421 0.000081 2.804060 79.119301 1136.941284
65 551.629089 934.514771 339.150421 0.000081 2.804060 79.119301 1136.941284
[mouthGun]
63 55.332661 1627.420898 0.000000 0.000023 0.000009 -11.038128 1628.361328
64 55.332661 1627.420898 0.000000 0.000023 0.000009 -11.038128 1628.361328
65 55.332661 1627.420898 0.000000 0.000023 0.000009 -11.038128 1628.361328
[R_Mouth01]
63 554.442383 7.659197 -838.223938 29.795891 -23.759109 109.605331 1005.029541
64 554.442383 7.659197 -838.223938 29.795891 -23.759109 109.605331 1005.029541
65 554.442383 7.659197 -838.223938 29.795891 -23.759109 109.605331 1005.029541
[R_mouthFront]
63 551.629089 934.514282 -339.151367 0.000029 -2.803930 79.119133 1136.941162
64 551.629089 934.514282 -339.151367 0.000029 -2.803930 79.119133 1136.941162
65 551.629089 934.514282 -339.151367 0.000029 -2.803930 79.119133 1136.941162
[TopMouth]
63 461.269867 -56.106091 -0.008583 -0.000059 -0.000268 92.025169 464.669525
64 461.269867 -56.106091 -0.008583 -0.000059 -0.000268 92.025169 464.669525
65 461.269867 -56.106091 -0.008583 -0.000059 -0.000268 92.025169 464.669525
[weapon_bone]
63 -987.239868 1448.372803 0.001431 0.000000 89.965736 -31.038221 1752.833740
64 -987.239868 1448.372803 0.001431 0.000000 89.965736 -31.038221 1752.833740
65 -987.239868 1448.372803 0.001431 0.000000 89.965736 -31.038221 1752.833740
